<svg id="visual" viewBox="0 0 960 540" width="960" height="540" xmlns="http://www.w3.org/2000/svg" xmlns:xlink="http://www.w3.org/1999/xlink" version="1.1"><rect x="0" y="0" width="960" height="540" fill="#dae5eb"></rect><path d="M0 472L32 465.2C64 458.3 128 444.7 192 443C256 441.3 320 451.7 384 460.2C448 468.7 512 475.3 576 469.8C640 464.3 704 446.7 768 438.2C832 429.7 896 430.3 928 430.7L960 431L960 541L928 541C896 541 832 541 768 541C704 541 640 541 576 541C512 541 448 541 384 541C320 541 256 541 192 541C128 541 64 541 32 541L0 541Z" fill="#293377" stroke-linecap="round" stroke-linejoin="miter"></path></svg>